<mxfile host="app.diagrams.net" modified="2020-12-09T08:42:36.496Z" agent="5.0 (X11; Linux x86_64) AppleWebKit/537.36 (KHTML, like Gecko) Chrome/87.0.4280.88 Safari/537.36" etag="k0b9DZ6zjUuvZiJvIZrO" version="13.9.9" type="github">
  <diagram id="9Y8ZHIoOVF3_s0dHNt5-" name="Page-1">
    <mxGraphModel dx="1635" dy="915" grid="1" gridSize="10" guides="1" tooltips="1" connect="1" arrows="1" fold="1" page="1" pageScale="1" pageWidth="827" pageHeight="1169" math="0" shadow="0">
      <root>
        <mxCell id="0" />
        <mxCell id="1" parent="0" />
        <mxCell id="SoJKSNoQK4Bj8bn0CBLv-29" value="" style="whiteSpace=wrap;html=1;aspect=fixed;" vertex="1" parent="1">
          <mxGeometry x="214.31" y="270" width="431.37" height="431.37" as="geometry" />
        </mxCell>
        <mxCell id="SoJKSNoQK4Bj8bn0CBLv-3" value="&lt;font style=&quot;font-size: 14px&quot; face=&quot;Times New Roman&quot;&gt;Get LED Sequence&lt;/font&gt;" style="ellipse;whiteSpace=wrap;html=1;fillColor=#dae8fc;strokeColor=#6c8ebf;" vertex="1" parent="1">
          <mxGeometry x="329.99" y="330" width="200" height="50" as="geometry" />
        </mxCell>
        <mxCell id="SoJKSNoQK4Bj8bn0CBLv-4" value="&lt;font style=&quot;font-size: 14px&quot; face=&quot;Times New Roman&quot;&gt;Transfer INVERTED Sequence to Slave&lt;/font&gt;" style="ellipse;whiteSpace=wrap;html=1;fillColor=#dae8fc;strokeColor=#6c8ebf;" vertex="1" parent="1">
          <mxGeometry x="338.02" y="480" width="200" height="70" as="geometry" />
        </mxCell>
        <mxCell id="SoJKSNoQK4Bj8bn0CBLv-5" value="&lt;font style=&quot;font-size: 14px&quot; face=&quot;Times New Roman&quot;&gt;Display Output through RGB LED&lt;/font&gt;" style="ellipse;whiteSpace=wrap;html=1;fillColor=#d5e8d4;strokeColor=#82b366;" vertex="1" parent="1">
          <mxGeometry x="329.01" y="405" width="209.01" height="55" as="geometry" />
        </mxCell>
        <mxCell id="SoJKSNoQK4Bj8bn0CBLv-10" value="&lt;font face=&quot;Times New Roman&quot; style=&quot;font-size: 14px&quot;&gt;CUSTOMER/USER&lt;/font&gt;" style="shape=umlActor;verticalLabelPosition=bottom;verticalAlign=top;html=1;" vertex="1" parent="1">
          <mxGeometry x="120" y="405" width="30" height="60" as="geometry" />
        </mxCell>
        <mxCell id="SoJKSNoQK4Bj8bn0CBLv-11" value="&lt;font style=&quot;font-size: 14px&quot; face=&quot;Times New Roman&quot;&gt;MASTER K64&lt;/font&gt;" style="shape=umlActor;verticalLabelPosition=bottom;verticalAlign=top;html=1;direction=east;" vertex="1" parent="1">
          <mxGeometry x="690" y="300" width="30" height="60" as="geometry" />
        </mxCell>
        <mxCell id="SoJKSNoQK4Bj8bn0CBLv-12" value="&lt;font face=&quot;Times New Roman&quot; style=&quot;font-size: 14px&quot;&gt;SLAVE K64&lt;/font&gt;" style="shape=umlActor;verticalLabelPosition=bottom;verticalAlign=top;html=1;" vertex="1" parent="1">
          <mxGeometry x="700" y="490" width="30" height="60" as="geometry" />
        </mxCell>
        <mxCell id="SoJKSNoQK4Bj8bn0CBLv-30" value="&lt;font style=&quot;font-size: 18px&quot;&gt;USE CASE Diagram&lt;/font&gt;" style="text;html=1;align=center;verticalAlign=middle;resizable=0;points=[];autosize=1;" vertex="1" parent="1">
          <mxGeometry x="333.51" y="230" width="180" height="20" as="geometry" />
        </mxCell>
        <mxCell id="SoJKSNoQK4Bj8bn0CBLv-37" value="" style="endArrow=classic;html=1;exitX=0.5;exitY=0.5;exitDx=0;exitDy=0;exitPerimeter=0;entryX=0;entryY=0.5;entryDx=0;entryDy=0;" edge="1" parent="1" source="SoJKSNoQK4Bj8bn0CBLv-10" target="SoJKSNoQK4Bj8bn0CBLv-3">
          <mxGeometry width="50" height="50" relative="1" as="geometry">
            <mxPoint x="160" y="420" as="sourcePoint" />
            <mxPoint x="210" y="370" as="targetPoint" />
          </mxGeometry>
        </mxCell>
        <mxCell id="SoJKSNoQK4Bj8bn0CBLv-40" value="" style="endArrow=classic;html=1;entryX=1;entryY=0.5;entryDx=0;entryDy=0;exitX=1;exitY=0.5;exitDx=0;exitDy=0;" edge="1" parent="1" source="SoJKSNoQK4Bj8bn0CBLv-3">
          <mxGeometry width="50" height="50" relative="1" as="geometry">
            <mxPoint x="469" y="380" as="sourcePoint" />
            <mxPoint x="700" y="330" as="targetPoint" />
          </mxGeometry>
        </mxCell>
        <mxCell id="SoJKSNoQK4Bj8bn0CBLv-41" value="" style="endArrow=classic;html=1;entryX=1;entryY=0.5;entryDx=0;entryDy=0;" edge="1" parent="1" target="SoJKSNoQK4Bj8bn0CBLv-4">
          <mxGeometry width="50" height="50" relative="1" as="geometry">
            <mxPoint x="700" y="330" as="sourcePoint" />
            <mxPoint x="469" y="390" as="targetPoint" />
          </mxGeometry>
        </mxCell>
        <mxCell id="SoJKSNoQK4Bj8bn0CBLv-45" value="&lt;font style=&quot;font-size: 14px&quot; face=&quot;Times New Roman&quot;&gt;Receive LED Sequence&lt;/font&gt;" style="ellipse;whiteSpace=wrap;html=1;fillColor=#dae8fc;strokeColor=#6c8ebf;" vertex="1" parent="1">
          <mxGeometry x="414" y="600" width="200" height="50" as="geometry" />
        </mxCell>
        <mxCell id="SoJKSNoQK4Bj8bn0CBLv-46" value="" style="endArrow=classic;html=1;exitX=1;exitY=0.5;exitDx=0;exitDy=0;entryX=0.5;entryY=0.5;entryDx=0;entryDy=0;entryPerimeter=0;" edge="1" parent="1" source="SoJKSNoQK4Bj8bn0CBLv-45" target="SoJKSNoQK4Bj8bn0CBLv-12">
          <mxGeometry width="50" height="50" relative="1" as="geometry">
            <mxPoint x="680" y="610" as="sourcePoint" />
            <mxPoint x="865" y="605" as="targetPoint" />
          </mxGeometry>
        </mxCell>
        <mxCell id="SoJKSNoQK4Bj8bn0CBLv-49" value="Extends" style="endArrow=block;endSize=16;endFill=0;html=1;entryX=0.5;entryY=1;entryDx=0;entryDy=0;exitX=0.5;exitY=0;exitDx=0;exitDy=0;" edge="1" parent="1" source="SoJKSNoQK4Bj8bn0CBLv-45" target="SoJKSNoQK4Bj8bn0CBLv-4">
          <mxGeometry width="160" relative="1" as="geometry">
            <mxPoint x="399" y="594.5" as="sourcePoint" />
            <mxPoint x="239" y="594.5" as="targetPoint" />
          </mxGeometry>
        </mxCell>
        <mxCell id="SoJKSNoQK4Bj8bn0CBLv-50" value="" style="endArrow=classic;html=1;exitX=0.5;exitY=0.5;exitDx=0;exitDy=0;exitPerimeter=0;entryX=1;entryY=0.5;entryDx=0;entryDy=0;" edge="1" parent="1" source="SoJKSNoQK4Bj8bn0CBLv-11" target="SoJKSNoQK4Bj8bn0CBLv-5">
          <mxGeometry width="50" height="50" relative="1" as="geometry">
            <mxPoint x="680" y="440" as="sourcePoint" />
            <mxPoint x="499" y="420" as="targetPoint" />
          </mxGeometry>
        </mxCell>
        <mxCell id="SoJKSNoQK4Bj8bn0CBLv-51" value="" style="endArrow=classic;html=1;entryX=1;entryY=0.5;entryDx=0;entryDy=0;" edge="1" parent="1" target="SoJKSNoQK4Bj8bn0CBLv-5">
          <mxGeometry width="50" height="50" relative="1" as="geometry">
            <mxPoint x="710" y="520" as="sourcePoint" />
            <mxPoint x="519" y="420" as="targetPoint" />
          </mxGeometry>
        </mxCell>
        <mxCell id="SoJKSNoQK4Bj8bn0CBLv-53" value="" style="endArrow=classic;html=1;exitX=0;exitY=0.5;exitDx=0;exitDy=0;entryX=0.5;entryY=0.5;entryDx=0;entryDy=0;entryPerimeter=0;" edge="1" parent="1" source="SoJKSNoQK4Bj8bn0CBLv-5" target="SoJKSNoQK4Bj8bn0CBLv-10">
          <mxGeometry width="50" height="50" relative="1" as="geometry">
            <mxPoint x="305" y="535" as="sourcePoint" />
            <mxPoint x="110" y="590" as="targetPoint" />
          </mxGeometry>
        </mxCell>
      </root>
    </mxGraphModel>
  </diagram>
</mxfile>
